name kv06_filtered_grf.mot
datacolumns 37
datarows 6
range 0.904000 0.906500
endheader
time	1_ground_force_vx	1_ground_force_vy	1_ground_force_vz	1_ground_force_px	1_ground_force_py	1_ground_force_pz	1_ground_torque_x	1_ground_torque_y	1_ground_torque_z	2_ground_force_vx	2_ground_force_vy	2_ground_force_vz	2_ground_force_px	2_ground_force_py	2_ground_force_pz	2_ground_torque_x	2_ground_torque_y	2_ground_torque_z	3_ground_force_vx	3_ground_force_vy	3_ground_force_vz	3_ground_force_px	3_ground_force_py	3_ground_force_pz	3_ground_torque_x	3_ground_torque_y	3_ground_torque_z	4_ground_force_vx	4_ground_force_vy	4_ground_force_vz	4_ground_force_px	4_ground_force_py	4_ground_force_pz	4_ground_torque_x	4_ground_torque_y	4_ground_torque_z
            0.904000	           -0.001830	            0.040025	            0.028955	            0.450000	            0.000000	            0.900000	            0.026475	            0.009645	           -0.011300	           -0.002245	            0.005521	           -0.007407	           -0.205683	            0.000000	            0.253889	           -0.000755	            0.000011	            0.001026	            1.070037	           -0.622547	           -1.327825	            0.386715	            0.970544	            1.074847	            0.006825	            0.024262	            0.021828	           -0.659235	            0.166318	           -0.138619	           -0.368715	            0.969638	            1.108289	            0.003373	            0.005125	           -0.034093
            0.904500	           -0.002065	            0.043112	            0.031013	            0.450000	            0.000000	            0.900000	            0.028563	            0.010408	           -0.012165	           -0.002091	            0.007495	           -0.006286	           -0.205683	            0.000000	            0.253889	           -0.000403	            0.000009	            0.001228	            1.065053	           -0.609307	           -1.338766	            0.386723	            0.970541	            1.074846	            0.006844	            0.024069	            0.020875	           -0.679322	            0.189818	           -0.132309	           -0.368708	            0.969632	            1.108290	            0.003884	            0.005118	           -0.033379
            0.905000	           -0.002302	            0.046152	            0.033028	            0.450000	            0.000000	            0.900000	            0.030621	            0.011160	           -0.013017	           -0.001919	            0.009539	           -0.005072	           -0.205683	            0.000000	            0.253889	           -0.000030	            0.000007	            0.001435	            1.060001	           -0.595386	           -1.348855	            0.386730	            0.970538	            1.074845	            0.006853	            0.023856	            0.019915	           -0.698305	            0.213525	           -0.125665	           -0.368701	            0.969625	            1.108291	            0.004394	            0.005107	           -0.032656
            0.905500	           -0.002541	            0.049125	            0.034987	            0.450000	            0.000000	            0.900000	            0.032638	            0.011898	           -0.013849	           -0.001727	            0.011648	           -0.003765	           -0.205683	            0.000000	            0.253889	            0.000365	            0.000005	            0.001646	            1.054885	           -0.580826	           -1.358080	            0.386737	            0.970534	            1.074845	            0.006854	            0.023623	            0.018947	           -0.716191	            0.237401	           -0.118662	           -0.368697	            0.969619	            1.108291	            0.004899	            0.005092	           -0.031927
            0.906000	           -0.002780	            0.052015	            0.036877	            0.450000	            0.000000	            0.900000	            0.034601	            0.012615	           -0.014657	           -0.001515	            0.013814	           -0.002368	           -0.205683	            0.000000	            0.253889	            0.000779	            0.000002	            0.001861	            1.049722	           -0.565673	           -1.366421	            0.386745	            0.970530	            1.074845	            0.006845	            0.023368	            0.017974	           -0.732978	            0.261408	           -0.111319	           -0.368692	            0.969612	            1.108291	            0.005400	            0.005072	           -0.031190
            0.906500	           -0.003018	            0.054801	            0.038685	            0.450000	            0.000000	            0.900000	            0.036497	            0.013309	           -0.015436	           -0.001285	            0.016030	           -0.000881	           -0.205683	            0.000000	            0.253889	            0.001211	           -0.000000	            0.002078	            1.044524	           -0.549969	           -1.373866	            0.386752	            0.970526	            1.074845	            0.006827	            0.023094	            0.016997	           -0.748673	            0.285510	           -0.103634	           -0.368688	            0.969606	            1.108291	            0.005897	            0.005050	           -0.030448
